<?xml version="1.0" encoding="UTF-8"?><svg xmlns="http://www.w3.org/2000/svg" xmlns:xlink="http://www.w3.org/1999/xlink" height="230.2" preserveAspectRatio="xMidYMid meet" version="1.1" viewBox="130.6 95.8 164.0 230.2" width="164.0" zoomAndPan="magnify">
 <g id="surface1">
  <path d="m2306.2 2673.6v322.1c0 145.9-118.2 264.2-264.1 264.2s-264.1-118.3-264.1-264.2v-322.1" fill="none" stroke="#100f0f" stroke-linecap="round" stroke-linejoin="round" stroke-miterlimit="10" stroke-width="68.363" transform="matrix(.1 0 0 -.1 0 425.2)"/>
  <g id="change1_1"><path d="m281.02 317.69c0 4.56-3.74 8.29-8.31 8.29h-133.81c-4.56 0-8.3-3.73-8.3-8.29l15.56-173.04c0-4.56 3.74-8.3 8.3-8.3h102.69c4.57 0 8.3 3.74 8.3 8.3l15.57 173.04" fill="#f79326"/></g>
  <g id="change2_1"><path d="m294.6 317.69c0 4.56-3.74 8.29-8.3 8.29h-133.82c-4.56 0-8.3-3.73-8.3-8.29l15.57-173.04c0-4.56 3.73-8.3 8.3-8.3h102.69c4.56 0 8.3 3.74 8.3 8.3l15.56 173.04" fill="#f9af23"/></g>
  <g id="change1_2"><path d="m200.43 157.84c0 4.39-3.55 7.94-7.93 7.94s-7.94-3.55-7.94-7.94c0-4.38 3.56-7.93 7.94-7.93s7.93 3.55 7.93 7.93" fill="#f79326"/></g>
  <g id="change1_3"><path d="m254.22 157.84c0 4.39-3.56 7.94-7.93 7.94-4.39 0-7.94-3.55-7.94-7.94 0-4.38 3.55-7.93 7.94-7.93 4.37 0 7.93 3.55 7.93 7.93" fill="#f79326"/></g>
  <path d="m2458 2673.6v322.1c0 145.9-118.2 264.2-264.1 264.2s-264.1-118.3-264.1-264.2v-322.1" fill="none" stroke="#141515" stroke-linecap="round" stroke-linejoin="round" stroke-miterlimit="10" stroke-width="68.363" transform="matrix(.1 0 0 -.1 0 425.2)"/>
 </g>
</svg>